<?xml version="1.0" standalone="no"?>
<svg version="1.0" xmlns="http://www.w3.org/2000/svg"
 width="512" height="512" viewBox="0 0 2048.000000 2048.000000"
 preserveAspectRatio="xMidYMid meet">

<g transform="translate(0.000000,2048.000000) scale(0.100000,-0.100000)"
fill="#ffffff" stroke="none">
<path d="M10203 18113 c9 -2 23 -2 30 0 6 3 -1 5 -18 5 -16 0 -22 -2 -12 -5z"/>
<path d="M10096 18091 c-3 -4 6 -6 19 -3 14 2 25 6 25 8 0 8 -39 4 -44 -5z"/>
<path d="M10320 18096 c0 -2 11 -6 25 -8 13 -3 22 -1 19 3 -5 9 -44 13 -44 5z"/>
<path d="M10010 18039 c-30 -22 -77 -55 -105 -73 -27 -19 -59 -44 -70 -57
l-20 -23 30 22 c17 12 77 56 134 97 57 41 100 75 95 75 -5 -1 -34 -19 -64 -41z"/>
<path d="M10436 18042 c141 -91 174 -111 174 -107 0 8 -209 145 -221 145 -7 0
14 -17 47 -38z"/>
<path d="M10635 17915 c11 -9 29 -21 40 -26 l20 -10 -20 16 c-11 9 -29 21 -40
26 l-20 10 20 -16z"/>
<path d="M9789 17873 c-13 -16 -12 -17 4 -4 16 13 21 21 13 21 -2 0 -10 -8
-17 -17z"/>
<path d="M10724 17855 c11 -8 24 -15 30 -15 5 0 1 7 -10 15 -10 8 -23 14 -29
14 -5 0 -1 -6 9 -14z"/>
<path d="M9726 17835 c-11 -8 -18 -17 -15 -19 2 -2 15 4 28 15 27 22 15 26
-13 4z"/>
<path d="M10801 17807 c20 -17 129 -87 129 -83 0 7 -117 86 -126 86 -4 0 -5
-2 -3 -3z"/>
<path d="M9616 17755 c-11 -8 -16 -15 -10 -15 5 0 18 7 28 15 11 8 16 15 10
15 -5 0 -18 -7 -28 -15z"/>
<path d="M10980 17685 c0 -2 10 -10 23 -16 20 -11 21 -11 8 4 -13 16 -31 23
-31 12z"/>
<path d="M11136 17585 c10 -8 23 -15 28 -15 6 0 1 7 -10 15 -10 8 -23 15 -28
15 -6 0 -1 -7 10 -15z"/>
<path d="M11212 17535 c20 -14 40 -25 45 -25 4 0 -9 11 -29 25 -20 14 -40 25
-45 25 -4 0 9 -11 29 -25z"/>
<path d="M11315 17467 c48 -33 75 -49 75 -44 0 6 -77 57 -87 57 -4 0 1 -6 12
-13z"/>
<path d="M10499 17447 c14 -18 51 -42 51 -33 0 3 -15 15 -32 27 -24 17 -29 18
-19 6z"/>
<path d="M11430 17397 c0 -2 19 -17 43 -32 23 -16 37 -22 30 -14 -12 15 -73
53 -73 46z"/>
<path d="M10602 17374 c10 -10 20 -16 22 -13 3 3 -5 11 -17 18 -21 13 -21 12
-5 -5z"/>
<path d="M11527 17329 c7 -7 15 -10 18 -7 3 3 -2 9 -12 12 -14 6 -15 5 -6 -5z"/>
<path d="M10686 17315 c10 -8 23 -15 28 -15 6 0 1 7 -10 15 -10 8 -23 15 -28
15 -6 0 -1 -7 10 -15z"/>
<path d="M8975 17287 c-52 -37 -88 -67 -81 -67 3 0 34 20 68 45 34 25 58 45
53 44 -6 0 -24 -10 -40 -22z"/>
<path d="M11630 17260 c35 -24 54 -31 30 -11 -14 11 -29 21 -35 21 -5 0 -3 -5
5 -10z"/>
<path d="M11750 17187 c0 -3 19 -17 43 -32 24 -16 36 -21 28 -11 -14 16 -71
51 -71 43z"/>
<path d="M8780 17139 l-35 -30 38 26 c33 24 43 35 34 35 -1 0 -18 -14 -37 -31z"/>
<path d="M11840 17127 c0 -2 19 -17 43 -32 23 -16 37 -22 30 -14 -12 15 -73
53 -73 46z"/>
<path d="M8719 17093 c-13 -16 -12 -17 4 -4 16 13 21 21 13 21 -2 0 -10 -8
-17 -17z"/>
<path d="M11017 17099 c7 -7 15 -10 18 -7 3 3 -2 9 -12 12 -14 6 -15 5 -6 -5z"/>
<path d="M11972 17035 c20 -14 40 -25 45 -25 4 0 -9 11 -29 25 -20 14 -40 25
-45 25 -4 0 9 -11 29 -25z"/>
<path d="M11192 16984 c10 -10 20 -16 22 -13 3 3 -5 11 -17 18 -21 13 -21 12
-5 -5z"/>
<path d="M12046 16985 c10 -8 23 -15 28 -15 6 0 1 7 -10 15 -10 8 -23 15 -28
15 -6 0 -1 -7 10 -15z"/>
<path d="M8505 16934 l-30 -26 33 22 c17 12 32 23 32 26 0 7 -4 5 -35 -22z"/>
<path d="M12300 16821 c14 -11 30 -21 35 -21 11 0 -7 14 -40 31 -13 7 -12 3 5
-10z"/>
<path d="M11525 16766 c17 -14 34 -26 39 -26 11 0 11 0 -34 29 l-35 23 30 -26z"/>
<path d="M12455 16720 c3 -5 8 -10 11 -10 2 0 4 5 4 10 0 6 -5 10 -11 10 -5 0
-7 -4 -4 -10z"/>
<path d="M12480 16706 c0 -5 69 -46 78 -46 4 0 -10 11 -30 25 -36 24 -48 30
-48 21z"/>
<path d="M8069 16619 c-23 -19 -23 -20 -2 -10 12 6 25 16 28 21 10 16 -1 12
-26 -11z"/>
<path d="M12614 16621 c7 -11 46 -35 46 -28 0 3 -12 12 -26 22 -15 9 -23 12
-20 6z"/>
<path d="M12670 16587 c0 -3 12 -12 26 -22 15 -9 23 -12 20 -6 -7 11 -46 35
-46 28z"/>
<path d="M12160 16346 c0 -2 7 -7 16 -10 8 -3 12 -2 9 4 -6 10 -25 14 -25 6z"/>
<path d="M10037 16163 c18 -2 50 -2 70 0 21 2 7 4 -32 4 -38 0 -55 -2 -38 -4z"/>
<path d="M10508 16163 c23 -2 59 -2 80 0 20 2 1 4 -43 4 -44 0 -61 -2 -37 -4z"/>
<path d="M9743 16143 c9 -2 23 -2 30 0 6 3 -1 5 -18 5 -16 0 -22 -2 -12 -5z"/>
<path d="M10818 16143 c12 -2 30 -2 40 0 9 3 -1 5 -23 4 -22 0 -30 -2 -17 -4z"/>
<path d="M9548 16123 c12 -2 30 -2 40 0 9 3 -1 5 -23 4 -22 0 -30 -2 -17 -4z"/>
<path d="M11035 16120 c17 -4 41 -8 55 -9 20 0 22 1 10 9 -8 5 -33 9 -55 9
-39 -1 -39 -2 -10 -9z"/>
<path d="M9375 16100 c-4 -6 6 -7 27 -3 44 8 48 13 10 13 -17 0 -34 -4 -37
-10z"/>
<path d="M11165 16100 c17 -4 39 -8 50 -9 16 -1 17 1 5 9 -8 5 -31 9 -50 9
l-35 -1 30 -8z"/>
<path d="M9240 16080 c-12 -8 -10 -10 10 -9 14 1 36 5 50 9 23 7 22 8 -10 9
-19 0 -42 -4 -50 -9z"/>
<path d="M11285 16080 c11 -5 31 -9 45 -9 23 0 23 1 5 9 -11 5 -31 9 -45 9
-23 0 -23 -1 -5 -9z"/>
<path d="M13435 16080 c3 -5 8 -10 11 -10 2 0 4 5 4 10 0 6 -5 10 -11 10 -5 0
-7 -4 -4 -10z"/>
<path d="M9145 16060 c-18 -8 -18 -9 5 -9 14 0 34 4 45 9 18 8 18 9 -5 9 -14
0 -34 -4 -45 -9z"/>
<path d="M11395 16060 c27 -12 43 -12 25 0 -8 5 -22 9 -30 9 -10 0 -8 -3 5 -9z"/>
<path d="M9075 16040 c-13 -5 -14 -9 -5 -9 8 0 24 4 35 9 13 5 14 9 5 9 -8 0
-24 -4 -35 -9z"/>
<path d="M11518 16033 c7 -3 16 -2 19 1 4 3 -2 6 -13 5 -11 0 -14 -3 -6 -6z"/>
<path d="M11598 16013 c7 -3 16 -2 19 1 4 3 -2 6 -13 5 -11 0 -14 -3 -6 -6z"/>
<path d="M8778 15953 c7 -3 16 -2 19 1 4 3 -2 6 -13 5 -11 0 -14 -3 -6 -6z"/>
<path d="M8638 15913 c7 -3 16 -2 19 1 4 3 -2 6 -13 5 -11 0 -14 -3 -6 -6z"/>
<path d="M11948 15913 c7 -3 16 -2 19 1 4 3 -2 6 -13 5 -11 0 -14 -3 -6 -6z"/>
<path d="M12008 15893 c7 -3 16 -2 19 1 4 3 -2 6 -13 5 -11 0 -14 -3 -6 -6z"/>
<path d="M12120 15856 c0 -2 9 -6 20 -9 11 -3 18 -1 14 4 -5 9 -34 13 -34 5z"/>
<path d="M10363 15723 c59 -2 155 -2 215 0 59 1 10 3 -108 3 -118 0 -167 -2
-107 -3z"/>
<path d="M9953 15703 c20 -2 54 -2 75 0 20 2 3 4 -38 4 -41 0 -58 -2 -37 -4z"/>
<path d="M10888 15703 c17 -2 47 -2 65 0 17 2 3 4 -33 4 -36 0 -50 -2 -32 -4z"/>
<path d="M9810 15690 l-45 -7 45 -1 c25 -1 52 3 60 8 18 11 13 11 -60 0z"/>
<path d="M11088 15683 c18 -2 45 -2 60 0 15 2 0 4 -33 4 -33 0 -45 -2 -27 -4z"/>
<path d="M12520 15686 c0 -2 7 -7 16 -10 8 -3 12 -2 9 4 -6 10 -25 14 -25 6z"/>
<path d="M9675 15670 l-40 -7 42 -2 c23 0 45 4 48 9 3 6 3 9 -2 9 -4 -1 -26
-5 -48 -9z"/>
<path d="M11200 15671 c13 -10 119 -16 109 -7 -2 2 -31 7 -64 10 -42 5 -56 4
-45 -3z"/>
<path d="M9543 15643 c9 -2 25 -2 35 0 9 3 1 5 -18 5 -19 0 -27 -2 -17 -5z"/>
<path d="M11383 15643 c9 -2 23 -2 30 0 6 3 -1 5 -18 5 -16 0 -22 -2 -12 -5z"/>
<path d="M12600 15646 c0 -2 7 -7 16 -10 8 -3 12 -2 9 4 -6 10 -25 14 -25 6z"/>
<path d="M11445 15629 c4 -5 22 -9 42 -9 45 0 40 5 -10 13 -22 3 -35 2 -32 -4z"/>
<path d="M9438 15623 c6 -2 18 -2 25 0 6 3 1 5 -13 5 -14 0 -19 -2 -12 -5z"/>
<path d="M9338 15603 c7 -3 16 -2 19 1 4 3 -2 6 -13 5 -11 0 -14 -3 -6 -6z"/>
<path d="M11578 15603 c6 -2 18 -2 25 0 6 3 1 5 -13 5 -14 0 -19 -2 -12 -5z"/>
<path d="M11630 15591 c8 -6 28 -11 44 -11 39 0 31 6 -19 14 -29 5 -36 4 -25
-3z"/>
<path d="M11765 15560 c27 -12 43 -12 25 0 -8 5 -22 9 -30 9 -10 0 -8 -3 5 -9z"/>
<path d="M11815 15540 c3 -5 21 -10 38 -9 27 0 29 2 12 9 -28 12 -57 12 -50 0z"/>
<path d="M11900 15520 c8 -5 24 -9 35 -9 l20 0 -20 9 c-11 5 -27 9 -35 9 -13
1 -13 0 0 -9z"/>
<path d="M11970 15500 c8 -5 24 -9 35 -9 l20 0 -20 9 c-11 5 -27 9 -35 9 -13
1 -13 0 0 -9z"/>
<path d="M12105 15460 c3 -5 14 -10 23 -10 15 0 15 2 2 10 -20 13 -33 13 -25
0z"/>
<path d="M14417 15439 c7 -7 15 -10 18 -7 3 3 -2 9 -12 12 -14 6 -15 5 -6 -5z"/>
<path d="M12225 15420 c3 -5 14 -10 23 -10 15 0 15 2 2 10 -20 13 -33 13 -25
0z"/>
<path d="M12298 15393 c7 -3 16 -2 19 1 4 3 -2 6 -13 5 -11 0 -14 -3 -6 -6z"/>
<path d="M12348 15373 c7 -3 16 -2 19 1 4 3 -2 6 -13 5 -11 0 -14 -3 -6 -6z"/>
<path d="M14555 15350 c3 -5 8 -10 11 -10 2 0 4 5 4 10 0 6 -5 10 -11 10 -5 0
-7 -4 -4 -10z"/>
<path d="M14634 15301 c4 -6 16 -16 28 -22 15 -8 18 -8 14 0 -4 6 -16 16 -28
22 -15 8 -18 8 -14 0z"/>
<path d="M6215 15270 c-3 -6 1 -7 9 -4 18 7 21 14 7 14 -6 0 -13 -4 -16 -10z"/>
<path d="M14690 15267 c0 -3 12 -12 26 -22 15 -9 23 -12 20 -6 -7 11 -46 35
-46 28z"/>
<path d="M12647 15249 c7 -7 15 -10 18 -7 3 3 -2 9 -12 12 -14 6 -15 5 -6 -5z"/>
<path d="M12690 15230 c8 -5 20 -10 25 -10 6 0 3 5 -5 10 -8 5 -19 10 -25 10
-5 0 -3 -5 5 -10z"/>
<path d="M12730 15210 c0 -5 5 -10 11 -10 5 0 7 5 4 10 -3 6 -8 10 -11 10 -2
0 -4 -4 -4 -10z"/>
<path d="M13897 15209 c7 -7 15 -10 18 -7 3 3 -2 9 -12 12 -14 6 -15 5 -6 -5z"/>
<path d="M14957 15089 c7 -7 15 -10 18 -7 3 3 -2 9 -12 12 -14 6 -15 5 -6 -5z"/>
<path d="M15005 15057 c48 -33 75 -49 75 -44 0 6 -77 57 -87 57 -4 0 1 -6 12
-13z"/>
<path d="M13077 15019 c7 -7 15 -10 18 -7 3 3 -2 9 -12 12 -14 6 -15 5 -6 -5z"/>
<path d="M15185 14943 c6 -6 64 -46 130 -90 140 -93 145 -96 145 -89 0 2 -16
14 -35 26 -20 12 -41 27 -48 33 -6 7 -24 18 -39 26 -15 8 -36 21 -46 30 -10 9
-29 22 -43 30 -13 8 -35 21 -49 29 -14 9 -20 11 -15 5z"/>
<path d="M14620 14737 c0 -3 12 -12 26 -22 15 -9 23 -12 20 -6 -7 11 -46 35
-46 28z"/>
<path d="M15622 14654 c10 -10 20 -16 22 -13 3 3 -5 11 -17 18 -21 13 -21 12
-5 -5z"/>
<path d="M13621 14647 c2 -1 13 -9 24 -17 19 -14 19 -14 6 3 -7 9 -18 17 -24
17 -6 0 -8 -1 -6 -3z"/>
<path d="M14810 14606 c0 -2 7 -7 16 -10 8 -3 12 -2 9 4 -6 10 -25 14 -25 6z"/>
<path d="M5084 14448 l-19 -23 23 19 c12 11 22 21 22 23 0 8 -8 2 -26 -19z"/>
<path d="M15925 14455 c30 -25 59 -39 51 -26 -4 6 -22 18 -39 27 -30 14 -31
14 -12 -1z"/>
<path d="M16010 14406 c0 -6 107 -76 118 -76 6 0 -24 22 -90 65 -16 9 -28 15
-28 11z"/>
<path d="M15153 14382 c15 -9 27 -20 27 -24 0 -5 8 -8 17 -8 12 0 5 9 -19 25
-20 14 -41 25 -45 25 -4 0 4 -8 20 -18z"/>
<path d="M16186 14285 c10 -8 23 -15 28 -15 6 0 1 7 -10 15 -10 8 -23 15 -28
15 -6 0 -1 -7 10 -15z"/>
<path d="M16330 14197 c0 -3 12 -12 26 -22 15 -9 23 -12 20 -6 -7 11 -46 35
-46 28z"/>
<path d="M13140 14164 l-35 -14 44 5 c24 3 51 10 60 15 26 16 -28 11 -69 -6z"/>
<path d="M13255 14170 c3 -6 12 -10 19 -10 6 0 32 -13 57 -28 98 -62 122 -75
116 -65 -4 6 -37 29 -74 51 -74 45 -128 68 -118 52z"/>
<path d="M15477 14169 c7 -7 15 -10 18 -7 3 3 -2 9 -12 12 -14 6 -15 5 -6 -5z"/>
<path d="M16390 14157 c0 -3 12 -12 26 -22 15 -9 23 -12 20 -6 -7 11 -46 35
-46 28z"/>
<path d="M13020 14140 c-14 -5 -45 -14 -69 -21 -43 -13 -96 -47 -87 -56 2 -3
18 5 34 17 16 12 69 32 118 45 49 13 76 23 59 23 -16 0 -41 -4 -55 -8z"/>
<path d="M15556 14115 c10 -8 23 -15 28 -15 6 0 1 7 -10 15 -10 8 -23 15 -28
15 -6 0 -1 -7 10 -15z"/>
<path d="M16499 14082 c38 -31 81 -54 81 -44 0 5 -8 12 -17 15 -10 3 -34 15
-53 27 -30 19 -31 19 -11 2z"/>
<path d="M15630 14072 c0 -4 14 -16 30 -25 17 -10 30 -16 30 -14 0 2 -13 13
-30 25 -16 13 -30 19 -30 14z"/>
<path d="M12889 13992 c17 -22 38 -45 48 -53 10 -8 -2 10 -26 39 -49 60 -68
71 -22 14z"/>
<path d="M13500 14026 c0 -2 12 -12 28 -21 l27 -18 -19 21 c-17 20 -36 29 -36
18z"/>
<path d="M15704 14021 c7 -11 46 -35 46 -28 0 3 -12 12 -26 22 -15 9 -23 12
-20 6z"/>
<path d="M16602 14014 c10 -10 20 -16 22 -13 3 3 -5 11 -17 18 -21 13 -21 12
-5 -5z"/>
<path d="M4426 13975 c-11 -8 -15 -15 -9 -15 6 0 16 7 23 15 16 19 11 19 -14
0z"/>
<path d="M13560 13986 c0 -2 11 -11 25 -20 14 -9 25 -13 25 -8 0 5 -11 14 -25
20 -14 6 -25 10 -25 8z"/>
<path d="M16650 13986 c0 -2 12 -12 28 -21 l27 -18 -19 21 c-17 20 -36 29 -36
18z"/>
<path d="M15810 13951 c14 -11 30 -21 35 -21 11 0 -7 14 -40 31 -13 7 -12 3 5
-10z"/>
<path d="M13650 13927 c0 -2 19 -17 43 -32 23 -16 37 -22 30 -14 -12 15 -73
53 -73 46z"/>
<path d="M16740 13927 c0 -3 12 -12 26 -22 15 -9 23 -12 20 -6 -7 11 -46 35
-46 28z"/>
<path d="M12971 13893 c7 -12 15 -20 18 -17 3 2 -3 12 -13 22 -17 16 -18 16
-5 -5z"/>
<path d="M13740 13867 c0 -3 12 -12 26 -22 15 -9 23 -12 20 -6 -7 11 -46 35
-46 28z"/>
<path d="M16835 13863 c9 -9 139 -97 173 -117 6 -4 12 -3 12 2 0 5 -12 15 -27
23 -16 7 -53 30 -83 49 -67 45 -89 57 -75 43z"/>
<path d="M15966 13845 c10 -8 23 -15 28 -15 6 0 1 7 -10 15 -10 8 -23 15 -28
15 -6 0 -1 -7 10 -15z"/>
<path d="M4205 13814 l-30 -26 35 23 c45 29 45 29 34 29 -5 0 -22 -12 -39 -26z"/>
<path d="M13867 13779 c7 -7 15 -10 18 -7 3 3 -2 9 -12 12 -14 6 -15 5 -6 -5z"/>
<path d="M13931 13737 c2 -1 13 -9 24 -17 19 -14 19 -14 6 3 -7 9 -18 17 -24
17 -6 0 -8 -1 -6 -3z"/>
<path d="M16147 13729 c12 -15 73 -53 73 -46 0 2 -19 17 -42 32 -24 16 -38 22
-31 14z"/>
<path d="M17074 13705 c11 -8 24 -15 30 -15 5 0 1 7 -10 15 -10 8 -23 14 -29
14 -5 0 -1 -6 9 -14z"/>
<path d="M14020 13676 c0 -2 12 -12 28 -21 l27 -18 -19 21 c-17 20 -36 29 -36
18z"/>
<path d="M17145 13663 c6 -5 39 -30 75 -54 74 -51 137 -89 105 -64 -67 53
-207 145 -180 118z"/>
<path d="M14080 13637 c0 -2 19 -17 43 -32 23 -16 37 -22 30 -14 -12 15 -73
53 -73 46z"/>
<path d="M16310 13621 c14 -11 30 -21 35 -21 11 0 -7 14 -40 31 -13 7 -12 3 5
-10z"/>
<path d="M16472 13514 c10 -10 20 -15 24 -12 3 4 -5 12 -18 18 -22 12 -22 12
-6 -6z"/>
<path d="M17355 13521 c8 -14 75 -51 75 -43 0 5 -18 18 -40 30 -23 12 -38 18
-35 13z"/>
<path d="M13361 13433 c7 -12 15 -20 18 -17 3 2 -3 12 -13 22 -17 16 -18 16
-5 -5z"/>
<path d="M17475 13443 c6 -6 64 -45 130 -88 66 -43 126 -82 133 -88 6 -5 12
-7 12 -4 0 3 -54 42 -120 86 -117 78 -175 113 -155 94z"/>
<path d="M14395 13420 c3 -5 8 -10 11 -10 2 0 4 5 4 10 0 6 -5 10 -11 10 -5 0
-7 -4 -4 -10z"/>
<path d="M16630 13416 c0 -2 8 -10 18 -17 15 -13 16 -12 3 4 -13 16 -21 21
-21 13z"/>
<path d="M13405 13380 c10 -11 20 -20 23 -20 3 0 -3 9 -13 20 -10 11 -20 20
-23 20 -3 0 3 -9 13 -20z"/>
<path d="M14490 13356 c0 -2 7 -7 16 -10 8 -3 12 -2 9 4 -6 10 -25 14 -25 6z"/>
<path d="M14540 13327 c0 -2 19 -17 43 -32 23 -16 37 -22 30 -14 -12 15 -73
53 -73 46z"/>
<path d="M3490 13292 c-19 -16 -53 -41 -75 -55 -22 -15 -35 -27 -30 -27 13 0
161 110 149 110 -5 0 -25 -13 -44 -28z"/>
<path d="M15885 13291 c-3 -6 10 -7 32 -4 50 8 55 13 10 13 -20 0 -38 -4 -42
-9z"/>
<path d="M16281 13296 c11 -9 69 -15 64 -6 -3 6 -20 10 -37 10 -17 0 -29 -2
-27 -4z"/>
<path d="M16816 13285 c10 -8 23 -15 28 -15 6 0 1 7 -10 15 -10 8 -23 15 -28
15 -6 0 -1 -7 10 -15z"/>
<path d="M15780 13270 c-10 -6 -2 -7 25 -3 49 7 58 13 19 13 -16 0 -36 -5 -44
-10z"/>
<path d="M16400 13262 c25 -9 66 -38 92 -63 27 -25 48 -43 48 -39 0 3 -17 22
-37 42 -44 42 -106 78 -131 77 -9 0 3 -8 28 -17z"/>
<path d="M15675 13250 c-3 -5 -19 -10 -35 -10 -16 0 -32 -4 -35 -10 -3 -5 -17
-10 -30 -10 -13 0 -27 -5 -31 -11 -4 -7 0 -9 14 -5 11 4 62 18 113 31 80 20
88 24 52 25 -23 0 -45 -4 -48 -10z"/>
<path d="M13550 13202 c0 -4 10 -13 23 -21 22 -14 22 -14 3 8 -20 22 -26 25
-26 13z"/>
<path d="M14746 13185 c10 -8 23 -15 28 -15 6 0 1 7 -10 15 -10 8 -23 15 -28
15 -6 0 -1 -7 10 -15z"/>
<path d="M15470 13190 c-8 -5 -24 -11 -34 -15 -10 -3 -17 -8 -14 -10 2 -3 29
4 59 14 36 13 46 20 29 20 -14 0 -32 -4 -40 -9z"/>
<path d="M16964 13191 c7 -11 46 -35 46 -28 0 3 -12 12 -26 22 -15 9 -23 12
-20 6z"/>
<path d="M17886 13169 c8 -13 44 -31 44 -22 0 4 -11 13 -25 20 -14 6 -23 7
-19 2z"/>
<path d="M3270 13133 l-25 -26 33 22 c31 22 39 32 25 30 -5 0 -19 -12 -33 -26z"/>
<path d="M15370 13150 c-18 -12 -2 -12 25 0 13 6 15 9 5 9 -8 0 -22 -4 -30 -9z"/>
<path d="M15315 13130 c-8 -13 5 -13 25 0 13 8 13 10 -2 10 -9 0 -20 -4 -23
-10z"/>
<path d="M16547 13103 c8 -52 13 -54 13 -5 0 23 -4 42 -9 42 -6 0 -7 -17 -4
-37z"/>
<path d="M13620 13124 c0 -6 15 -23 32 -40 l33 -29 -25 30 c-14 17 -28 34 -32
40 -5 5 -8 5 -8 -1z"/>
<path d="M14862 13104 c10 -10 20 -16 22 -13 3 3 -5 11 -17 18 -21 13 -21 12
-5 -5z"/>
<path d="M15265 13110 c-8 -13 5 -13 25 0 13 8 13 10 -2 10 -9 0 -20 -4 -23
-10z"/>
<path d="M17970 13117 c0 -4 46 -35 105 -72 36 -23 23 -8 -25 26 -39 29 -80
52 -80 46z"/>
<path d="M15162 13073 c-24 -8 -41 -17 -39 -19 4 -5 97 26 97 32 0 6 -11 4
-58 -13z"/>
<path d="M17150 13065 c0 -7 61 -47 66 -42 3 2 -11 14 -31 25 -19 12 -35 20
-35 17z"/>
<path d="M13701 13021 c7 -10 21 -24 33 -31 15 -9 12 -3 -8 19 -34 35 -41 39
-25 12z"/>
<path d="M14983 13019 c12 -7 27 -7 45 0 25 9 24 9 -18 10 -36 0 -41 -2 -27
-10z"/>
<path d="M16520 13008 c-12 -22 -12 -22 6 -6 10 10 15 20 12 24 -4 3 -12 -5
-18 -18z"/>
<path d="M17230 13010 c0 -5 5 -10 11 -10 5 0 7 5 4 10 -3 6 -8 10 -11 10 -2
0 -4 -4 -4 -10z"/>
<path d="M3079 12993 c-13 -17 -13 -17 6 -3 11 8 22 16 24 17 2 2 0 3 -6 3 -6
0 -17 -8 -24 -17z"/>
<path d="M5444 12985 c-3 -8 -4 -20 -2 -27 3 -7 7 -1 10 15 6 29 1 36 -8 12z"/>
<path d="M18200 12966 c0 -2 11 -11 25 -20 14 -9 25 -13 25 -8 0 5 -11 14 -25
20 -14 6 -25 10 -25 8z"/>
<path d="M5416 12904 c-4 -14 -5 -29 -2 -31 3 -3 8 7 12 21 3 15 4 29 1 32 -2
3 -8 -7 -11 -22z"/>
<path d="M18294 12901 c7 -11 46 -35 46 -28 0 3 -12 12 -26 22 -15 9 -23 12
-20 6z"/>
<path d="M17482 12844 c10 -10 20 -15 24 -12 3 4 -5 12 -18 18 -22 12 -22 12
-6 -6z"/>
<path d="M5396 12835 c-3 -9 -6 -22 -5 -28 0 -7 5 -1 10 12 5 13 8 26 5 28 -2
2 -6 -3 -10 -12z"/>
<path d="M18410 12827 c0 -3 12 -12 26 -22 15 -9 23 -12 20 -6 -7 11 -46 35
-46 28z"/>
<path d="M2819 12803 c-13 -16 -12 -17 4 -4 16 13 21 21 13 21 -2 0 -10 -8
-17 -17z"/>
<path d="M18470 12787 c0 -6 117 -77 127 -77 4 0 -5 9 -22 21 -36 24 -105 61
-105 56z"/>
<path d="M2730 12740 c-9 -6 -10 -10 -3 -10 6 0 15 5 18 10 8 12 4 12 -15 0z"/>
<path d="M5371 12734 c0 -11 3 -14 6 -6 3 7 2 16 -1 19 -3 4 -6 -2 -5 -13z"/>
<path d="M18688 12644 c46 -30 86 -53 90 -50 3 3 1 6 -4 6 -6 0 -19 8 -30 18
-10 9 -31 23 -46 31 -15 8 -37 22 -47 33 -11 10 -26 18 -33 18 -7 0 25 -25 70
-56z"/>
<path d="M14011 12654 c0 -11 3 -14 6 -6 3 7 2 16 -1 19 -3 4 -6 -2 -5 -13z"/>
<path d="M2560 12619 c-30 -23 -64 -50 -75 -61 -11 -12 15 5 58 37 67 50 84
65 75 65 -2 0 -28 -19 -58 -41z"/>
<path d="M17824 12621 c7 -11 46 -35 46 -28 0 3 -12 12 -26 22 -15 9 -23 12
-20 6z"/>
<path d="M13896 12611 c-4 -5 3 -7 14 -4 23 6 26 13 6 13 -8 0 -17 -4 -20 -9z"/>
<path d="M12347 12594 c-3 -4 -39 -17 -79 -31 -40 -13 -77 -29 -83 -35 -7 -8
-4 -9 10 -3 11 4 61 20 110 35 120 36 126 38 84 39 -20 1 -38 -2 -42 -5z"/>
<path d="M12535 12559 c120 -70 195 -111 195 -106 0 6 -246 147 -256 147 -5 0
23 -18 61 -41z"/>
<path d="M13820 12590 c-8 -4 -57 -25 -108 -46 -51 -20 -95 -42 -99 -47 -4 -6
-1 -7 8 -2 7 5 70 30 139 57 69 26 114 47 100 47 -14 0 -32 -4 -40 -9z"/>
<path d="M5325 12550 c-4 -23 -5 -44 -2 -46 3 -3 8 13 12 36 4 23 5 44 2 46
-3 3 -8 -13 -12 -36z"/>
<path d="M18890 12512 c152 -98 181 -115 186 -110 2 3 -18 17 -45 31 -26 15
-54 34 -61 42 -7 8 -16 15 -21 15 -5 0 -40 20 -79 45 -39 25 -74 45 -78 45 -4
0 40 -31 98 -68z"/>
<path d="M15865 12535 c-16 -8 -23 -14 -15 -14 8 0 26 6 40 14 32 18 15 18
-25 0z"/>
<path d="M17970 12526 c0 -2 8 -10 18 -17 15 -13 16 -12 3 4 -13 16 -21 21
-21 13z"/>
<path d="M2380 12485 c-19 -14 -30 -25 -25 -25 6 0 24 11 40 25 39 31 30 31
-15 0z"/>
<path d="M13578 12483 c7 -3 16 -2 19 1 4 3 -2 6 -13 5 -11 0 -14 -3 -6 -6z"/>
<path d="M15728 12483 c7 -3 16 -2 19 1 4 3 -2 6 -13 5 -11 0 -14 -3 -6 -6z"/>
<path d="M15680 12470 c-23 -7 -23 -8 -3 -9 12 -1 25 4 28 9 3 6 5 10 3 9 -2
-1 -14 -5 -28 -9z"/>
<path d="M13500 12460 c-8 -4 -32 -16 -52 -25 -57 -24 -46 -28 14 -4 67 26 89
39 68 38 -8 0 -22 -4 -30 -9z"/>
<path d="M15625 12450 c-16 -7 -17 -9 -3 -9 9 -1 20 4 23 9 7 11 7 11 -20 0z"/>
<path d="M5302 12405 c0 -16 2 -22 5 -12 2 9 2 23 0 30 -3 6 -5 -1 -5 -18z"/>
<path d="M15558 12423 c7 -3 16 -2 19 1 4 3 -2 6 -13 5 -11 0 -14 -3 -6 -6z"/>
<path d="M15510 12410 c-23 -7 -23 -8 -3 -9 12 -1 25 4 28 9 3 6 5 10 3 9 -2
-1 -14 -5 -28 -9z"/>
<path d="M12810 12406 c0 -2 7 -7 16 -10 8 -3 12 -2 9 4 -6 10 -25 14 -25 6z"/>
<path d="M13370 12400 c0 -5 7 -7 15 -4 8 4 15 8 15 10 0 2 -7 4 -15 4 -8 0
-15 -4 -15 -10z"/>
<path d="M15450 12390 c-23 -7 -23 -8 -3 -9 12 -1 25 4 28 9 3 6 5 10 3 9 -2
-1 -14 -5 -28 -9z"/>
<path d="M12250 12365 c13 -14 26 -25 28 -25 3 0 -5 11 -18 25 -13 14 -26 25
-28 25 -3 0 5 -11 18 -25z"/>
<path d="M12864 12376 c11 -9 24 -16 30 -16 12 0 7 5 -24 19 -24 11 -24 11 -6
-3z"/>
<path d="M13325 12380 c-3 -6 1 -7 9 -4 18 7 21 14 7 14 -6 0 -13 -4 -16 -10z"/>
<path d="M19100 12380 c35 -24 54 -31 30 -11 -14 11 -29 21 -35 21 -5 0 -3 -5
5 -10z"/>
<path d="M18190 12370 c0 -5 5 -10 11 -10 5 0 7 5 4 10 -3 6 -8 10 -11 10 -2
0 -4 -4 -4 -10z"/>
<path d="M15378 12363 c7 -3 16 -2 19 1 4 3 -2 6 -13 5 -11 0 -14 -3 -6 -6z"/>
<path d="M15308 12343 c7 -3 16 -2 19 1 4 3 -2 6 -13 5 -11 0 -14 -3 -6 -6z"/>
<path d="M19180 12330 c14 -10 27 -17 29 -14 6 5 -31 33 -44 33 -5 1 1 -8 15
-19z"/>
<path d="M15224 12315 c-18 -13 -18 -14 4 -8 12 3 25 9 28 14 8 14 -10 11 -32
-6z"/>
<path d="M2114 12288 l-19 -21 28 18 c28 18 33 25 19 25 -5 0 -17 -10 -28 -22z"/>
<path d="M19254 12270 c52 -63 89 -144 94 -205 4 -46 -6 -93 -34 -175 -3 -8 4
0 15 18 12 18 21 41 21 52 0 10 5 22 10 25 6 3 10 28 10 55 0 27 -4 52 -10 55
-5 3 -10 17 -10 31 0 37 -21 71 -89 143 l-43 46 36 -45z"/>
<path d="M13034 12275 c23 -17 55 -19 76 -4 12 8 8 9 -14 6 -17 -3 -41 -1 -55
4 -25 9 -25 8 -7 -6z"/>
<path d="M18346 12265 c10 -8 23 -15 28 -15 6 0 1 7 -10 15 -10 8 -23 15 -28
15 -6 0 -1 -7 10 -15z"/>
<path d="M5281 12254 c0 -11 3 -14 6 -6 3 7 2 16 -1 19 -3 4 -6 -2 -5 -13z"/>
<path d="M5852 12230 c0 -14 2 -19 5 -12 2 6 2 18 0 25 -3 6 -5 1 -5 -13z"/>
<path d="M18506 12165 c10 -8 23 -15 28 -15 6 0 1 7 -10 15 -10 8 -23 15 -28
15 -6 0 -1 -7 10 -15z"/>
<path d="M1900 12135 c-19 -14 -30 -25 -25 -25 6 0 24 11 40 25 39 31 30 31
-15 0z"/>
<path d="M1776 12045 c-11 -8 -15 -15 -9 -15 6 0 16 7 23 15 16 19 11 19 -14
0z"/>
<path d="M5833 11965 c0 -33 2 -45 4 -27 2 18 2 45 0 60 -2 15 -4 0 -4 -33z"/>
<path d="M12060 11988 c-19 -6 -30 -12 -24 -15 7 -2 27 3 45 11 39 17 29 19
-21 4z"/>
<path d="M12195 11980 c10 -11 20 -20 23 -20 3 0 -3 9 -13 20 -10 11 -20 20
-23 20 -3 0 3 -9 13 -20z"/>
<path d="M12570 11983 c0 -7 5 -15 10 -18 6 -3 11 -16 11 -28 1 -17 2 -18 6
-5 2 10 -3 28 -11 40 -9 12 -16 17 -16 11z"/>
<path d="M14205 11980 c3 -5 8 -10 11 -10 2 0 4 5 4 10 0 6 -5 10 -11 10 -5 0
-7 -4 -4 -10z"/>
<path d="M11980 11960 c-18 -12 -2 -12 25 0 13 6 15 9 5 9 -8 0 -22 -4 -30 -9z"/>
<path d="M1598 11915 c-27 -20 -48 -37 -48 -40 0 -3 23 11 50 31 43 31 58 45
48 44 -2 0 -24 -16 -50 -35z"/>
<path d="M11915 11940 c-7 -12 2 -12 30 0 19 8 19 9 -2 9 -12 1 -25 -3 -28 -9z"/>
<path d="M18639 11933 c-13 -15 -12 -15 9 -4 23 12 28 21 13 21 -5 0 -15 -7
-22 -17z"/>
<path d="M11850 11920 c-8 -5 -25 -10 -38 -10 -12 0 -30 -4 -40 -9 -9 -5 -26
-12 -36 -16 -10 -3 -17 -7 -15 -10 3 -2 45 9 94 25 50 15 81 28 70 29 -11 0
-27 -4 -35 -9z"/>
<path d="M11655 11860 c-3 -5 -15 -10 -26 -10 -10 0 -19 -4 -19 -9 0 -6 21 -3
48 6 58 20 62 23 29 23 -14 0 -29 -4 -32 -10z"/>
<path d="M13808 11863 c7 -3 16 -2 19 1 4 3 -2 6 -13 5 -11 0 -14 -3 -6 -6z"/>
<path d="M19290 11850 c-6 -11 -8 -20 -6 -20 3 0 10 9 16 20 6 11 8 20 6 20
-3 0 -10 -9 -16 -20z"/>
<path d="M13728 11843 c7 -3 16 -2 19 1 4 3 -2 6 -13 5 -11 0 -14 -3 -6 -6z"/>
<path d="M1466 11817 c-11 -7 -29 -21 -40 -31 -21 -18 -20 -18 12 0 19 10 38
25 44 32 13 15 9 15 -16 -1z"/>
<path d="M11515 11818 c-16 -6 -36 -12 -44 -15 -8 -2 -11 -6 -9 -9 6 -6 118
24 118 32 0 7 -33 3 -65 -8z"/>
<path d="M13668 11823 c7 -3 16 -2 19 1 4 3 -2 6 -13 5 -11 0 -14 -3 -6 -6z"/>
<path d="M19266 11805 c-3 -8 -1 -15 4 -15 6 0 10 7 10 15 0 8 -2 15 -4 15 -2
0 -6 -7 -10 -15z"/>
<path d="M13598 11803 c7 -3 16 -2 19 1 4 3 -2 6 -13 5 -11 0 -14 -3 -6 -6z"/>
<path d="M11400 11780 c-13 -9 -13 -10 0 -10 8 0 22 5 30 10 13 9 13 10 0 10
-8 0 -22 -5 -30 -10z"/>
<path d="M13505 11780 c-13 -5 -14 -9 -5 -9 8 0 24 4 35 9 13 5 14 9 5 9 -8 0
-24 -4 -35 -9z"/>
<path d="M14193 11735 c0 -27 2 -38 4 -22 2 15 2 37 0 50 -2 12 -4 0 -4 -28z"/>
<path d="M19246 11763 c-6 -14 -5 -15 5 -6 7 7 10 15 7 18 -3 3 -9 -2 -12 -12z"/>
<path d="M1349 11733 c-63 -54 -165 -162 -157 -167 2 -1 49 45 105 101 55 57
100 103 99 103 -1 0 -22 -17 -47 -37z"/>
<path d="M11318 11760 c-9 -6 -29 -12 -45 -14 -15 -2 -57 -12 -93 -24 -36 -11
-85 -26 -110 -32 -70 -19 -73 -20 -68 -25 5 -5 368 92 377 100 9 9 -44 4 -61
-5z"/>
<path d="M13425 11760 c-19 -8 -19 -9 2 -9 12 -1 25 4 28 9 7 12 -2 12 -30 0z"/>
<path d="M18406 11758 c-18 -10 -29 -19 -86 -68 -26 -22 46 25 90 60 27 21 26
26 -4 8z"/>
<path d="M13345 11740 c-13 -6 -15 -9 -5 -9 8 0 22 4 30 9 18 12 2 12 -25 0z"/>
<path d="M14996 11725 c-9 -26 -7 -32 5 -12 6 10 9 21 6 23 -2 3 -7 -2 -11
-11z"/>
<path d="M19226 11723 c-6 -14 -5 -15 5 -6 7 7 10 15 7 18 -3 3 -9 -2 -12 -12z"/>
<path d="M13261 11721 c-14 -4 -26 -12 -28 -18 -3 -8 6 -7 26 3 17 9 31 17 31
20 0 2 -1 4 -2 3 -2 -1 -14 -4 -27 -8z"/>
<path d="M12660 11712 c0 -5 7 -15 15 -22 8 -7 15 -8 15 -2 0 5 -7 15 -15 22
-8 7 -15 8 -15 2z"/>
<path d="M5833 11655 c0 -22 2 -30 4 -17 2 12 2 30 0 40 -3 9 -5 -1 -4 -23z"/>
<path d="M10895 11648 c-16 -6 -37 -13 -45 -16 -8 -2 -10 -6 -5 -8 6 -2 42 5
80 15 55 15 62 19 35 19 -19 0 -48 -5 -65 -10z"/>
<path d="M18245 11634 l-30 -26 33 22 c17 12 32 23 32 26 0 7 -4 5 -35 -22z"/>
<path d="M10750 11610 c-8 -5 -27 -10 -42 -10 -15 0 -30 -5 -33 -11 -8 -11 34
-5 114 16 45 13 46 13 11 14 -19 0 -42 -4 -50 -9z"/>
<path d="M14947 11601 c-4 -17 -3 -21 5 -13 5 5 8 16 6 23 -3 8 -7 3 -11 -10z"/>
<path d="M19181 11604 c0 -11 3 -14 6 -6 3 7 2 16 -1 19 -3 4 -6 -2 -5 -13z"/>
<path d="M14177 11593 c-4 -3 -6 -29 -6 -57 l1 -51 8 55 c9 57 8 65 -3 53z"/>
<path d="M10565 11570 c-3 -5 -17 -10 -31 -10 -13 0 -24 -4 -24 -10 0 -13 3
-13 85 9 l70 19 -47 1 c-26 1 -50 -3 -53 -9z"/>
<path d="M18135 11557 c-16 -12 -41 -32 -55 -46 l-25 -24 30 21 c39 27 91 71
85 71 -3 0 -18 -10 -35 -22z"/>
<path d="M14927 11541 c-4 -17 -3 -21 5 -13 5 5 8 16 6 23 -3 8 -7 3 -11 -10z"/>
<path d="M10410 11530 c-8 -5 -28 -10 -45 -10 -16 0 -37 -5 -45 -11 -18 -12
34 -6 120 15 49 12 51 14 20 15 -19 0 -42 -4 -50 -9z"/>
<path d="M19156 11525 c-9 -26 -7 -32 5 -12 6 10 9 21 6 23 -2 3 -7 -2 -11
-11z"/>
<path d="M1131 11477 c-8 -12 -21 -32 -29 -44 -8 -13 -12 -23 -9 -23 7 0 59
81 55 85 -2 2 -10 -6 -17 -18z"/>
<path d="M10225 11490 l-20 -9 20 0 c11 0 29 4 40 9 l20 9 -20 0 c-11 0 -29
-4 -40 -9z"/>
<path d="M18015 11464 l-30 -26 33 22 c17 12 32 23 32 26 0 7 -4 5 -35 -22z"/>
<path d="M10108 11463 c6 -2 18 -2 25 0 6 3 1 5 -13 5 -14 0 -19 -2 -12 -5z"/>
<path d="M9993 11443 c9 -2 25 -2 35 0 9 3 1 5 -18 5 -19 0 -27 -2 -17 -5z"/>
<path d="M12662 11420 c0 -19 2 -27 5 -17 2 9 2 25 0 35 -3 9 -5 1 -5 -18z"/>
<path d="M9856 11422 c-2 -4 11 -6 30 -4 19 2 34 6 34 8 0 8 -59 4 -64 -4z"/>
<path d="M17949 11413 c-13 -16 -12 -17 4 -4 16 13 21 21 13 21 -2 0 -10 -8
-17 -17z"/>
<path d="M9725 11401 c-3 -6 10 -7 32 -4 50 8 55 13 10 13 -20 0 -38 -4 -42
-9z"/>
<path d="M1068 11378 c-8 -13 -20 -39 -28 -58 -7 -19 -20 -43 -28 -52 -7 -9
-12 -24 -10 -34 1 -9 22 24 45 75 42 92 47 110 21 69z"/>
<path d="M9633 11383 c9 -2 25 -2 35 0 9 3 1 5 -18 5 -19 0 -27 -2 -17 -5z"/>
<path d="M5958 11363 c6 -2 18 -2 25 0 6 3 1 5 -13 5 -14 0 -19 -2 -12 -5z"/>
<path d="M9503 11363 c9 -2 25 -2 35 0 9 3 1 5 -18 5 -19 0 -27 -2 -17 -5z"/>
<path d="M14856 11353 c-6 -14 -5 -15 5 -6 7 7 10 15 7 18 -3 3 -9 -2 -12 -12z"/>
<path d="M17866 11355 c-11 -8 -17 -17 -14 -20 2 -3 13 4 23 15 21 23 18 25
-9 5z"/>
<path d="M6058 11343 c7 -3 16 -2 19 1 4 3 -2 6 -13 5 -11 0 -14 -3 -6 -6z"/>
<path d="M9383 11343 c9 -2 25 -2 35 0 9 3 1 5 -18 5 -19 0 -27 -2 -17 -5z"/>
<path d="M19112 11330 c0 -14 2 -19 5 -12 2 6 2 18 0 25 -3 6 -5 1 -5 -13z"/>
<path d="M6168 11323 c7 -3 16 -2 19 1 4 3 -2 6 -13 5 -11 0 -14 -3 -6 -6z"/>
<path d="M9228 11323 c12 -2 30 -2 40 0 9 3 -1 5 -23 4 -22 0 -30 -2 -17 -4z"/>
<path d="M5282 11290 c0 -14 2 -19 5 -12 2 6 2 18 0 25 -3 6 -5 1 -5 -13z"/>
<path d="M6293 11303 c9 -2 23 -2 30 0 6 3 -1 5 -18 5 -16 0 -22 -2 -12 -5z"/>
<path d="M9073 11303 c9 -2 25 -2 35 0 9 3 1 5 -18 5 -19 0 -27 -2 -17 -5z"/>
<path d="M15311 11273 c11 -21 19 -53 20 -73 1 -34 1 -34 9 -8 9 32 -10 96
-33 109 -12 7 -11 1 4 -28z"/>
<path d="M6445 11285 c23 -8 83 -10 79 -3 -3 4 -24 8 -47 7 -23 0 -37 -2 -32
-4z"/>
<path d="M8878 11283 c12 -2 32 -2 45 0 12 2 2 4 -23 4 -25 0 -35 -2 -22 -4z"/>
<path d="M15239 11268 c-8 -13 -25 -45 -38 -73 -13 -27 -30 -62 -37 -77 -8
-14 -14 -33 -14 -42 0 -9 -4 -16 -10 -16 -5 0 -10 -10 -9 -22 0 -17 6 -12 22
22 11 25 40 85 64 134 41 87 51 121 22 74z"/>
<path d="M17749 11263 c-13 -16 -12 -17 4 -4 16 13 21 21 13 21 -2 0 -10 -8
-17 -17z"/>
<path d="M6643 11263 c9 -2 25 -2 35 0 9 3 1 5 -18 5 -19 0 -27 -2 -17 -5z"/>
<path d="M8648 11263 c12 -2 30 -2 40 0 9 3 -1 5 -23 4 -22 0 -30 -2 -17 -4z"/>
<path d="M12643 11195 c0 -38 2 -53 4 -32 2 20 2 52 0 70 -2 17 -4 1 -4 -38z"/>
<path d="M6873 11243 c15 -2 39 -2 55 0 15 2 2 4 -28 4 -30 0 -43 -2 -27 -4z"/>
<path d="M8328 11243 c17 -2 47 -2 65 0 17 2 3 4 -33 4 -36 0 -50 -2 -32 -4z"/>
<path d="M17704 11228 l-19 -23 23 19 c21 18 27 26 19 26 -2 0 -12 -10 -23
-22z"/>
<path d="M7288 11223 c28 -2 76 -2 105 0 28 2 5 3 -53 3 -58 0 -81 -1 -52 -3z"/>
<path d="M7838 11223 c28 -2 76 -2 105 0 28 2 5 3 -53 3 -58 0 -81 -1 -52 -3z"/>
<path d="M12210 11200 c-8 -5 -10 -10 -5 -10 6 0 17 5 25 10 8 5 11 10 5 10
-5 0 -17 -5 -25 -10z"/>
<path d="M987 11193 c-4 -3 -7 -18 -6 -32 1 -26 1 -25 10 3 9 31 7 41 -4 29z"/>
<path d="M2980 11167 c0 -3 12 -12 26 -22 15 -9 23 -12 20 -6 -7 11 -46 35
-46 28z"/>
<path d="M5301 11150 c0 -14 4 -32 9 -40 9 -13 10 -13 9 0 -1 8 -5 26 -9 40
l-8 25 -1 -25z"/>
<path d="M17545 11114 c-61 -46 -142 -114 -115 -97 39 26 190 143 183 143 -4
-1 -35 -21 -68 -46z"/>
<path d="M966 11115 c-3 -9 -6 -26 -5 -38 1 -14 4 -9 9 13 9 37 7 52 -4 25z"/>
<path d="M15318 11095 c-11 -58 -10 -81 3 -68 5 5 9 32 7 59 l-3 49 -7 -40z"/>
<path d="M12624 11074 c-4 -22 -2 -40 5 -47 8 -8 11 1 11 36 0 56 -7 61 -16
11z"/>
<path d="M12838 11073 c7 -3 16 -2 19 1 4 3 -2 6 -13 5 -11 0 -14 -3 -6 -6z"/>
<path d="M12745 11045 c-40 -18 -16 -19 26 0 19 8 27 14 19 14 -8 0 -28 -6
-45 -14z"/>
<path d="M5326 11027 c3 -10 9 -15 12 -12 3 3 0 11 -7 18 -10 9 -11 8 -5 -6z"/>
<path d="M944 11016 c-3 -8 -4 -29 -2 -48 3 -29 4 -27 8 15 5 48 3 58 -6 33z"/>
<path d="M3190 11017 c0 -3 17 -17 37 -33 20 -15 33 -23 29 -16 -8 13 -66 56
-66 49z"/>
<path d="M15101 10970 c-11 -22 -21 -46 -21 -53 1 -7 12 10 26 36 14 27 23 51
21 53 -3 3 -14 -13 -26 -36z"/>
<path d="M17366 10985 c-11 -8 -18 -17 -15 -19 2 -3 15 4 29 14 14 11 21 20
15 19 -5 0 -19 -6 -29 -14z"/>
<path d="M14107 10947 c-4 -10 -6 -44 -6 -75 l1 -57 9 60 c10 67 8 102 -4 72z"/>
<path d="M15292 10935 c0 -16 2 -22 5 -12 2 9 2 23 0 30 -3 6 -5 -1 -5 -18z"/>
<path d="M17275 10913 c-64 -50 -125 -106 -90 -82 35 24 155 121 155 125 0 7
-5 4 -65 -43z"/>
<path d="M1462 10930 c0 -14 2 -19 5 -12 2 6 2 18 0 25 -3 6 -5 1 -5 -13z"/>
<path d="M5352 10920 c0 -14 2 -19 5 -12 2 6 2 18 0 25 -3 6 -5 1 -5 -13z"/>
<path d="M14676 10895 c-9 -26 -7 -32 5 -12 6 10 9 21 6 23 -2 3 -7 -2 -11
-11z"/>
<path d="M15067 10893 c-4 -3 -7 -13 -7 -22 1 -13 3 -13 11 2 11 19 8 33 -4
20z"/>
<path d="M5372 10840 c0 -14 2 -19 5 -12 2 6 2 18 0 25 -3 6 -5 1 -5 -13z"/>
<path d="M15272 10840 c0 -14 2 -19 5 -12 2 6 2 18 0 25 -3 6 -5 1 -5 -13z"/>
<path d="M3425 10840 c3 -5 8 -10 11 -10 2 0 4 5 4 10 0 6 -5 10 -11 10 -5 0
-7 -4 -4 -10z"/>
<path d="M15041 10834 c0 -11 3 -14 6 -6 3 7 2 16 -1 19 -3 4 -6 -2 -5 -13z"/>
<path d="M1443 10770 c0 -36 2 -50 4 -32 2 17 2 47 0 65 -2 17 -4 3 -4 -33z"/>
<path d="M3450 10826 c0 -2 14 -14 30 -26 17 -12 30 -19 30 -16 0 2 -13 14
-30 26 -16 12 -30 19 -30 16z"/>
<path d="M18632 10810 c0 -14 2 -19 5 -12 2 6 2 18 0 25 -3 6 -5 1 -5 -13z"/>
<path d="M15007 10765 c-24 -50 -20 -58 4 -12 11 22 19 41 17 43 -3 2 -12 -12
-21 -31z"/>
<path d="M11218 10783 c7 -3 16 -2 19 1 4 3 -2 6 -13 5 -11 0 -14 -3 -6 -6z"/>
<path d="M5391 10763 c-1 -12 4 -25 9 -28 12 -7 12 2 0 30 -8 19 -9 19 -9 -2z"/>
<path d="M15251 10763 c-1 -6 -4 -20 -7 -30 -5 -17 -5 -17 6 0 6 10 9 23 6 30
-3 9 -5 9 -5 0z"/>
<path d="M17050 10739 c-36 -32 -26 -28 24 9 16 12 25 22 19 22 -5 0 -24 -14
-43 -31z"/>
<path d="M18650 10734 c0 -21 29 -88 36 -82 2 3 -5 26 -16 54 -11 28 -19 40
-20 28z"/>
<path d="M14966 10685 c-9 -13 -16 -27 -16 -30 0 -3 -11 -23 -25 -45 -14 -22
-25 -48 -25 -57 0 -16 47 62 77 130 16 34 10 35 -11 2z"/>
<path d="M16989 10693 c-13 -16 -12 -17 4 -4 9 7 17 15 17 17 0 8 -8 3 -21
-13z"/>
<path d="M19246 10697 c3 -10 9 -15 12 -12 3 3 0 11 -7 18 -10 9 -11 8 -5 -6z"/>
<path d="M3630 10697 c0 -2 15 -14 33 -27 20 -15 27 -17 18 -6 -13 16 -51 41
-51 33z"/>
<path d="M10870 10660 c-9 -6 -10 -10 -3 -10 6 0 15 5 18 10 8 12 4 12 -15 0z"/>
<path d="M19270 10663 c0 -6 8 -17 18 -24 16 -13 16 -13 2 6 -8 11 -16 22 -17
24 -2 2 -3 0 -3 -6z"/>
<path d="M14083 10625 c0 -22 2 -30 4 -17 2 12 2 30 0 40 -3 9 -5 -1 -4 -23z"/>
<path d="M5440 10616 c0 -8 4 -17 9 -20 5 -4 7 3 4 14 -6 23 -13 26 -13 6z"/>
<path d="M10760 10620 c-9 -6 -10 -10 -3 -10 6 0 15 5 18 10 8 12 4 12 -15 0z"/>
<path d="M15201 10604 c0 -11 3 -14 6 -6 3 7 2 16 -1 19 -3 4 -6 -2 -5 -13z"/>
<path d="M19325 10590 c10 -11 20 -20 23 -20 3 0 -3 9 -13 20 -10 11 -20 20
-23 20 -3 0 3 -9 13 -20z"/>
<path d="M940 10569 c0 -19 4 -41 9 -48 6 -10 8 1 4 30 -7 55 -13 63 -13 18z"/>
<path d="M10638 10573 c7 -3 16 -2 19 1 4 3 -2 6 -13 5 -11 0 -14 -3 -6 -6z"/>
<path d="M16800 10549 l-35 -30 38 26 c33 24 43 35 34 35 -1 0 -18 -14 -37
-31z"/>
<path d="M5460 10558 c0 -9 5 -20 10 -23 13 -8 13 5 0 25 -8 13 -10 13 -10 -2z"/>
<path d="M10578 10553 c7 -3 16 -2 19 1 4 3 -2 6 -13 5 -11 0 -14 -3 -6 -6z"/>
<path d="M3851 10537 c2 -2 20 -14 39 -26 l35 -23 -30 26 c-16 14 -34 26 -39
26 -5 0 -7 -1 -5 -3z"/>
<path d="M10518 10533 c7 -3 16 -2 19 1 4 3 -2 6 -13 5 -11 0 -14 -3 -6 -6z"/>
<path d="M19406 10525 c10 -8 23 -15 28 -15 6 0 1 7 -10 15 -10 8 -23 15 -28
15 -6 0 -1 -7 10 -15z"/>
<path d="M14878 10508 c-22 -34 -52 -95 -41 -83 13 14 65 105 60 105 -3 0 -11
-10 -19 -22z"/>
<path d="M10458 10513 c7 -3 16 -2 19 1 4 3 -2 6 -13 5 -11 0 -14 -3 -6 -6z"/>
<path d="M5480 10503 c0 -5 7 -18 15 -29 13 -18 14 -18 8 4 -5 22 -23 41 -23
25z"/>
<path d="M960 10462 c0 -17 4 -34 10 -37 6 -4 7 6 3 27 -8 44 -13 48 -13 10z"/>
<path d="M10338 10473 c7 -3 16 -2 19 1 4 3 -2 6 -13 5 -11 0 -14 -3 -6 -6z"/>
<path d="M10280 10460 c-23 -7 -23 -8 -3 -9 12 -1 25 4 28 9 3 6 5 10 3 9 -2
-1 -14 -5 -28 -9z"/>
<path d="M5511 10434 c0 -11 3 -14 6 -6 3 7 2 16 -1 19 -3 4 -6 -2 -5 -13z"/>
<path d="M4000 10436 c0 -2 8 -10 18 -17 15 -13 16 -12 3 4 -13 16 -21 21 -21
13z"/>
<path d="M10196 10431 c-4 -5 3 -7 14 -4 23 6 26 13 6 13 -8 0 -17 -4 -20 -9z"/>
<path d="M19540 10431 c0 -6 5 -13 10 -16 6 -3 19 -23 30 -43 10 -20 19 -31
20 -24 0 12 -49 92 -56 92 -2 0 -4 -4 -4 -9z"/>
<path d="M14063 10370 c0 -36 2 -50 4 -32 2 17 2 47 0 65 -2 17 -4 3 -4 -33z"/>
<path d="M981 10388 c-1 -15 4 -30 9 -33 6 -3 10 -15 10 -25 0 -18 38 -100 46
-100 3 0 -22 73 -59 170 -3 9 -6 4 -6 -12z"/>
<path d="M14815 10399 c-4 -6 -5 -12 -2 -15 2 -3 7 2 10 11 7 17 1 20 -8 4z"/>
<path d="M5531 10384 c0 -11 3 -14 6 -6 3 7 2 16 -1 19 -3 4 -6 -2 -5 -13z"/>
<path d="M4070 10386 c0 -2 14 -14 30 -26 17 -12 30 -19 30 -16 0 2 -13 14
-30 26 -16 12 -30 19 -30 16z"/>
<path d="M9995 10370 c-19 -8 -19 -9 2 -9 12 -1 25 4 28 9 7 12 -2 12 -30 0z"/>
<path d="M9925 10350 c-19 -8 -19 -9 2 -9 12 -1 25 4 28 9 7 12 -2 12 -30 0z"/>
<path d="M14781 10337 c-13 -21 -12 -21 5 -5 10 10 16 20 13 22 -3 3 -11 -5
-18 -17z"/>
<path d="M5550 10341 c0 -6 4 -13 10 -16 6 -3 7 1 4 9 -7 18 -14 21 -14 7z"/>
<path d="M4162 10314 c10 -10 20 -16 22 -13 3 3 -5 11 -17 18 -21 13 -21 12
-5 -5z"/>
<path d="M9848 10323 c7 -3 16 -2 19 1 4 3 -2 6 -13 5 -11 0 -14 -3 -6 -6z"/>
<path d="M16458 10297 c-26 -17 -48 -36 -48 -40 0 -7 56 32 95 65 21 18 -3 6
-47 -25z"/>
<path d="M19606 10288 c9 -57 14 -61 14 -10 0 22 -5 44 -10 47 -7 4 -8 -8 -4
-37z"/>
<path d="M9790 10310 c-23 -7 -23 -8 -3 -9 12 -1 25 4 28 9 3 6 5 10 3 9 -2
-1 -14 -5 -28 -9z"/>
<path d="M9708 10283 c6 -2 18 -2 25 0 6 3 1 5 -13 5 -14 0 -19 -2 -12 -5z"/>
<path d="M14053 10250 c0 -25 2 -35 4 -22 2 12 2 32 0 45 -2 12 -4 2 -4 -23z"/>
<path d="M17236 10275 c-11 -8 -15 -15 -9 -15 6 0 16 7 23 15 16 19 11 19 -14
0z"/>
<path d="M1650 10266 c0 -2 8 -10 18 -17 15 -13 16 -12 3 4 -13 16 -21 21 -21
13z"/>
<path d="M9638 10263 c6 -2 18 -2 25 0 6 3 1 5 -13 5 -14 0 -19 -2 -12 -5z"/>
<path d="M18973 10245 c0 -8 4 -12 9 -9 5 3 6 10 3 15 -9 13 -12 11 -12 -6z"/>
<path d="M9578 10243 c7 -3 16 -2 19 1 4 3 -2 6 -13 5 -11 0 -14 -3 -6 -6z"/>
<path d="M9505 10230 l-20 -9 20 0 c11 0 27 4 35 9 13 9 13 10 0 9 -8 0 -24
-4 -35 -9z"/>
<path d="M3454 10222 c8 -13 66 -56 66 -49 0 3 -17 17 -37 33 -20 15 -33 23
-29 16z"/>
<path d="M4290 10226 c0 -2 14 -14 30 -26 17 -12 30 -19 30 -16 0 2 -13 14
-30 26 -16 12 -30 19 -30 16z"/>
<path d="M19613 10190 c0 -25 2 -35 4 -22 2 12 2 32 0 45 -2 12 -4 2 -4 -23z"/>
<path d="M1050 10209 c0 -8 10 -25 21 -39 l20 -25 -17 35 c-20 43 -24 47 -24
29z"/>
<path d="M9428 10203 c7 -3 16 -2 19 1 4 3 -2 6 -13 5 -11 0 -14 -3 -6 -6z"/>
<path d="M14138 10203 c7 -3 16 -2 19 1 4 3 -2 6 -13 5 -11 0 -14 -3 -6 -6z"/>
<path d="M18909 10193 c-13 -17 -13 -17 6 -3 11 8 22 16 24 17 2 2 0 3 -6 3
-6 0 -17 -8 -24 -17z"/>
<path d="M9358 10183 c7 -3 16 -2 19 1 4 3 -2 6 -13 5 -11 0 -14 -3 -6 -6z"/>
<path d="M16280 10159 l-35 -30 38 26 c33 24 43 35 34 35 -1 0 -18 -14 -37
-31z"/>
<path d="M9278 10163 c7 -3 16 -2 19 1 4 3 -2 6 -13 5 -11 0 -14 -3 -6 -6z"/>
<path d="M9165 10140 l-20 -9 20 0 c11 0 29 4 40 9 l20 9 -20 0 c-11 0 -29 -4
-40 -9z"/>
<path d="M1090 10134 c0 -6 7 -17 15 -24 8 -7 15 -19 15 -26 0 -8 5 -14 10
-14 7 0 7 6 1 18 -17 31 -40 57 -41 46z"/>
<path d="M1850 10126 c0 -2 8 -10 18 -17 15 -13 16 -12 3 4 -13 16 -21 21 -21
13z"/>
<path d="M4430 10126 c0 -2 8 -10 18 -17 15 -13 16 -12 3 4 -13 16 -21 21 -21
13z"/>
<path d="M9085 10120 c-18 -8 -17 -9 7 -9 15 -1 30 4 33 9 7 12 -12 12 -40 0z"/>
<path d="M16219 10113 c-13 -16 -12 -17 4 -4 9 7 17 15 17 17 0 8 -8 3 -21
-13z"/>
<path d="M19591 10104 c0 -11 3 -14 6 -6 3 7 2 16 -1 19 -3 4 -6 -2 -5 -13z"/>
<path d="M8995 10100 c-18 -8 -17 -9 7 -9 15 -1 30 4 33 9 7 12 -12 12 -40 0z"/>
<path d="M4480 10087 c0 -2 15 -14 33 -27 20 -15 27 -17 18 -6 -13 16 -51 41
-51 33z"/>
<path d="M8910 10080 c-23 -7 -23 -8 -3 -9 12 -1 25 4 28 9 3 6 5 10 3 9 -2
-1 -14 -5 -28 -9z"/>
<path d="M18720 10055 c-19 -14 -30 -25 -25 -25 6 0 24 11 40 25 39 31 30 31
-15 0z"/>
<path d="M8820 10060 l-25 -8 27 -1 c15 -1 30 4 33 9 7 11 0 11 -35 0z"/>
<path d="M8730 10040 l-25 -8 27 -1 c15 -1 30 4 33 9 7 11 0 11 -35 0z"/>
<path d="M4550 10036 c0 -2 8 -10 18 -17 15 -13 16 -12 3 4 -13 16 -21 21 -21
13z"/>
<path d="M8623 10013 c9 -2 23 -2 30 0 6 3 -1 5 -18 5 -16 0 -22 -2 -12 -5z"/>
<path d="M8518 9993 c6 -2 18 -2 25 0 6 3 1 5 -13 5 -14 0 -19 -2 -12 -5z"/>
<path d="M8435 9980 c-28 -7 -28 -8 -5 -9 14 0 32 4 40 9 17 11 8 11 -35 0z"/>
<path d="M2062 9964 c10 -10 20 -16 22 -13 3 3 -5 11 -17 18 -21 13 -21 12 -5
-5z"/>
<path d="M16020 9969 c0 -5 5 -7 10 -4 6 3 10 8 10 11 0 2 -4 4 -10 4 -5 0
-10 -5 -10 -11z"/>
<path d="M1210 9966 c0 -11 30 -39 36 -34 2 3 -5 13 -16 23 -11 10 -20 15 -20
11z"/>
<path d="M8313 9953 c9 -2 25 -2 35 0 9 3 1 5 -18 5 -19 0 -27 -2 -17 -5z"/>
<path d="M15989 9943 c-13 -16 -12 -17 4 -4 9 7 17 15 17 17 0 8 -8 3 -21 -13z"/>
<path d="M8203 9933 c9 -2 23 -2 30 0 6 3 -1 5 -18 5 -16 0 -22 -2 -12 -5z"/>
<path d="M8078 9913 c7 -3 16 -2 19 1 4 3 -2 6 -13 5 -11 0 -14 -3 -6 -6z"/>
<path d="M15939 9903 c-13 -16 -12 -17 4 -4 9 7 17 15 17 17 0 8 -8 3 -21 -13z"/>
<path d="M7953 9893 c9 -2 25 -2 35 0 9 3 1 5 -18 5 -19 0 -27 -2 -17 -5z"/>
<path d="M7795 9870 c-18 -8 -18 -9 5 -9 14 0 34 4 45 9 18 8 18 9 -5 9 -14 0
-34 -4 -45 -9z"/>
<path d="M4800 9856 c0 -2 8 -10 18 -17 15 -13 16 -12 3 4 -13 16 -21 21 -21
13z"/>
<path d="M7625 9850 l-40 -7 50 -1 c28 0 59 3 70 8 17 7 15 8 -10 8 -16 -1
-48 -4 -70 -8z"/>
<path d="M7438 9823 c12 -2 30 -2 40 0 9 3 -1 5 -23 4 -22 0 -30 -2 -17 -4z"/>
<path d="M7208 9803 c12 -2 32 -2 45 0 12 2 2 4 -23 4 -25 0 -35 -2 -22 -4z"/>
<path d="M1397 9789 c7 -7 15 -10 18 -7 3 3 -2 9 -12 12 -14 6 -15 5 -6 -5z"/>
<path d="M2310 9786 c0 -2 8 -10 18 -17 15 -13 16 -12 3 4 -13 16 -21 21 -21
13z"/>
<path d="M6868 9783 c7 -3 16 -2 19 1 4 3 -2 6 -13 5 -11 0 -14 -3 -6 -6z"/>
<path d="M1484 9732 c8 -13 66 -56 66 -49 0 3 -17 17 -37 33 -20 15 -33 23
-29 16z"/>
<path d="M4992 9714 c10 -10 20 -16 22 -13 3 3 -5 11 -17 18 -21 13 -21 12 -5
-5z"/>
<path d="M2544 9611 c20 -22 26 -25 26 -13 0 4 -10 13 -22 21 -23 14 -23 14
-4 -8z"/>
<path d="M18114 9588 l-19 -21 28 18 c28 18 33 25 19 25 -5 0 -17 -10 -28 -22z"/>
<path d="M1719 9557 c14 -18 51 -42 51 -33 0 3 -15 15 -32 27 -24 17 -29 18
-19 6z"/>
<path d="M15459 9543 c-13 -16 -12 -17 4 -4 9 7 17 15 17 17 0 8 -8 3 -21 -13z"/>
<path d="M2720 9487 c0 -2 14 -13 30 -25 17 -13 30 -19 30 -14 0 4 -13 16 -30
25 -16 10 -30 16 -30 14z"/>
<path d="M1831 9477 c2 -1 13 -9 24 -17 19 -14 19 -14 6 3 -7 9 -18 17 -24 17
-6 0 -8 -1 -6 -3z"/>
<path d="M17826 9375 c-114 -92 -115 -99 -3 -15 53 40 97 74 97 76 0 11 -22
-3 -94 -61z"/>
<path d="M1970 9376 c0 -2 8 -10 18 -17 15 -13 16 -12 3 4 -13 16 -21 21 -21
13z"/>
<path d="M2900 9356 c0 -2 8 -10 18 -17 15 -13 16 -12 3 4 -13 16 -21 21 -21
13z"/>
<path d="M18589 9293 c-13 -16 -12 -17 4 -4 9 7 17 15 17 17 0 8 -8 3 -21 -13z"/>
<path d="M2980 9296 c0 -2 14 -14 30 -26 17 -12 30 -19 30 -16 0 2 -13 14 -30
26 -16 12 -30 19 -30 16z"/>
<path d="M2182 9217 c17 -17 138 -99 138 -94 0 6 -139 107 -146 107 -3 0 1 -6
8 -13z"/>
<path d="M17600 9199 l-35 -30 38 26 c33 24 43 35 34 35 -1 0 -18 -14 -37 -31z"/>
<path d="M17481 9115 c-57 -46 -44 -46 16 0 25 19 42 35 37 35 -5 0 -29 -16
-53 -35z"/>
<path d="M3254 9091 c20 -22 26 -25 26 -13 0 4 -10 13 -22 21 -23 14 -23 14
-4 -8z"/>
<path d="M13639 9093 c-13 -16 -12 -17 4 -4 9 7 17 15 17 17 0 8 -8 3 -21 -13z"/>
<path d="M2380 9076 c0 -2 14 -14 30 -26 17 -12 30 -19 30 -16 0 2 -13 14 -30
26 -16 12 -30 19 -30 16z"/>
<path d="M17320 8989 l-45 -41 48 37 c41 33 53 45 45 45 -2 0 -23 -18 -48 -41z"/>
<path d="M3456 8945 c10 -8 23 -15 28 -15 6 0 1 7 -10 15 -10 8 -23 15 -28 15
-6 0 -1 -7 10 -15z"/>
<path d="M17235 8924 c-18 -16 -22 -22 -9 -15 18 9 53 42 43 41 -2 -1 -17 -12
-34 -26z"/>
<path d="M2650 8876 c0 -2 14 -14 30 -26 17 -12 30 -19 30 -16 0 2 -13 14 -30
26 -16 12 -30 19 -30 16z"/>
<path d="M3680 8786 c0 -2 8 -10 18 -17 15 -13 16 -12 3 4 -13 16 -21 21 -21
13z"/>
<path d="M17014 8758 l-19 -23 23 19 c21 18 27 26 19 26 -2 0 -12 -10 -23 -22z"/>
<path d="M13135 8760 c-3 -6 1 -7 9 -4 18 7 21 14 7 14 -6 0 -13 -4 -16 -10z"/>
<path d="M13074 8724 c-18 -14 -18 -15 4 -4 12 6 22 13 22 15 0 8 -5 6 -26
-11z"/>
<path d="M2860 8726 c0 -2 8 -10 18 -17 15 -13 16 -12 3 4 -13 16 -21 21 -21
13z"/>
<path d="M13020 8695 c-14 -8 -20 -14 -14 -15 5 0 19 7 30 15 24 18 16 19 -16
0z"/>
<path d="M2900 8691 c0 -5 7 -12 16 -15 14 -5 15 -4 4 9 -14 17 -20 19 -20 6z"/>
<path d="M2970 8646 c0 -2 8 -10 18 -17 15 -13 16 -12 3 4 -13 16 -21 21 -21
13z"/>
<path d="M12755 8560 c-3 -6 1 -7 9 -4 18 7 21 14 7 14 -6 0 -13 -4 -16 -10z"/>
<path d="M16735 8544 l-30 -26 33 22 c17 12 32 23 32 26 0 7 -4 5 -35 -22z"/>
<path d="M3090 8557 c0 -7 81 -69 86 -65 2 3 -16 19 -41 37 -25 18 -45 30 -45
28z"/>
<path d="M12715 8540 c-3 -6 1 -7 9 -4 18 7 21 14 7 14 -6 0 -13 -4 -16 -10z"/>
<path d="M16629 8463 c-13 -16 -12 -17 4 -4 9 7 17 15 17 17 0 8 -8 3 -21 -13z"/>
<path d="M12418 8413 c7 -3 16 -2 19 1 4 3 -2 6 -13 5 -11 0 -14 -3 -6 -6z"/>
<path d="M12356 8391 c-4 -5 3 -7 14 -4 23 6 26 13 6 13 -8 0 -17 -4 -20 -9z"/>
<path d="M17405 8390 c-3 -6 1 -7 9 -4 18 7 21 14 7 14 -6 0 -13 -4 -16 -10z"/>
<path d="M12296 8371 c-3 -4 6 -6 19 -3 14 2 25 6 25 8 0 8 -39 4 -44 -5z"/>
<path d="M16480 8349 l-35 -30 38 26 c33 24 43 35 34 35 -1 0 -18 -14 -37 -31z"/>
<path d="M12258 8353 c7 -3 16 -2 19 1 4 3 -2 6 -13 5 -11 0 -14 -3 -6 -6z"/>
<path d="M16419 8303 c-13 -16 -12 -17 4 -4 9 7 17 15 17 17 0 8 -8 3 -21 -13z"/>
<path d="M12078 8293 c7 -3 16 -2 19 1 4 3 -2 6 -13 5 -11 0 -14 -3 -6 -6z"/>
<path d="M11970 8269 c-14 -4 -52 -17 -85 -29 -33 -11 -46 -17 -28 -14 47 8
181 52 158 52 -11 0 -31 -4 -45 -9z"/>
<path d="M11758 8203 c7 -3 16 -2 19 1 4 3 -2 6 -13 5 -11 0 -14 -3 -6 -6z"/>
<path d="M9138 8183 c7 -3 16 -2 19 1 4 3 -2 6 -13 5 -11 0 -14 -3 -6 -6z"/>
<path d="M11678 8183 c7 -3 16 -2 19 1 4 3 -2 6 -13 5 -11 0 -14 -3 -6 -6z"/>
<path d="M11588 8163 c6 -2 18 -2 25 0 6 3 1 5 -13 5 -14 0 -19 -2 -12 -5z"/>
<path d="M9323 8143 c9 -2 23 -2 30 0 6 3 -1 5 -18 5 -16 0 -22 -2 -12 -5z"/>
<path d="M11488 8143 c6 -2 18 -2 25 0 6 3 1 5 -13 5 -14 0 -19 -2 -12 -5z"/>
<path d="M3692 8114 c10 -10 20 -16 22 -13 3 3 -5 11 -17 18 -21 13 -21 12 -5
-5z"/>
<path d="M9418 8123 c6 -2 18 -2 25 0 6 3 1 5 -13 5 -14 0 -19 -2 -12 -5z"/>
<path d="M11393 8123 c9 -2 23 -2 30 0 6 3 -1 5 -18 5 -16 0 -22 -2 -12 -5z"/>
<path d="M9533 8103 c9 -2 23 -2 30 0 6 3 -1 5 -18 5 -16 0 -22 -2 -12 -5z"/>
<path d="M11225 8100 c-4 -7 8 -8 37 -4 57 9 61 14 10 14 -22 0 -44 -5 -47
-10z"/>
<path d="M9663 8083 c9 -2 23 -2 30 0 6 3 -1 5 -18 5 -16 0 -22 -2 -12 -5z"/>
<path d="M11010 8080 c-19 -12 53 -12 120 -1 42 8 40 9 -30 10 -41 0 -82 -4
-90 -9z"/>
<path d="M9838 8063 c12 -2 32 -2 45 0 12 2 2 4 -23 4 -25 0 -35 -2 -22 -4z"/>
<path d="M10830 8060 c-10 -7 12 -8 65 -3 44 3 82 7 84 9 10 9 -135 3 -149 -6z"/>
<path d="M10123 8043 c31 -2 83 -2 115 0 31 2 5 3 -58 3 -63 0 -89 -1 -57 -3z"/>
<path d="M10518 8043 c34 -2 90 -2 125 0 34 2 6 3 -63 3 -69 0 -97 -1 -62 -3z"/>
<path d="M3835 8010 c10 -11 20 -20 23 -20 3 0 -3 9 -13 20 -10 11 -20 20 -23
20 -3 0 3 -9 13 -20z"/>
<path d="M16874 7988 l-19 -23 23 19 c21 18 27 26 19 26 -2 0 -12 -10 -23 -22z"/>
<path d="M8188 7938 c5 -5 16 -8 23 -6 8 3 3 7 -10 11 -17 4 -21 3 -13 -5z"/>
<path d="M8288 7898 c5 -5 16 -8 23 -6 8 3 3 7 -10 11 -17 4 -21 3 -13 -5z"/>
<path d="M4050 7856 c0 -3 20 -19 45 -36 25 -17 45 -29 45 -26 0 3 -20 19 -45
36 -25 17 -45 29 -45 26z"/>
<path d="M8408 7853 c7 -3 16 -2 19 1 4 3 -2 6 -13 5 -11 0 -14 -3 -6 -6z"/>
<path d="M12218 7853 c7 -3 16 -2 19 1 4 3 -2 6 -13 5 -11 0 -14 -3 -6 -6z"/>
<path d="M8528 7813 c6 -2 18 -2 25 0 6 3 1 5 -13 5 -14 0 -19 -2 -12 -5z"/>
<path d="M8598 7793 c7 -3 16 -2 19 1 4 3 -2 6 -13 5 -11 0 -14 -3 -6 -6z"/>
<path d="M15643 7723 c-89 -72 -133 -110 -119 -102 17 8 196 150 196 155 0 8
-6 4 -77 -53z"/>
<path d="M8890 7710 c8 -5 22 -9 30 -9 10 0 8 3 -5 9 -27 12 -43 12 -25 0z"/>
<path d="M4274 7692 c8 -13 66 -56 66 -49 0 3 -17 17 -37 33 -20 15 -33 23
-29 16z"/>
<path d="M8955 7690 c3 -5 21 -10 38 -9 31 1 31 1 7 9 -36 11 -52 11 -45 0z"/>
<path d="M11638 7683 c7 -3 16 -2 19 1 4 3 -2 6 -13 5 -11 0 -14 -3 -6 -6z"/>
<path d="M9078 7663 c6 -2 18 -2 25 0 6 3 1 5 -13 5 -14 0 -19 -2 -12 -5z"/>
<path d="M11538 7663 c6 -2 18 -2 25 0 6 3 1 5 -13 5 -14 0 -19 -2 -12 -5z"/>
<path d="M9145 7650 c3 -6 20 -10 37 -10 38 0 34 5 -10 13 -21 4 -31 3 -27 -3z"/>
<path d="M11443 7643 c9 -2 23 -2 30 0 6 3 -1 5 -18 5 -16 0 -22 -2 -12 -5z"/>
<path d="M9256 7628 c3 -4 18 -8 33 -8 15 0 32 -5 38 -11 5 -5 32 -9 59 -7 46
3 44 4 -43 19 -51 8 -90 12 -87 7z"/>
<path d="M11350 7630 l-35 -7 37 -2 c20 0 40 4 43 9 7 11 7 11 -45 0z"/>
<path d="M11235 7610 l-40 -7 37 -2 c20 0 40 4 43 9 3 6 5 9 3 9 -2 -1 -21 -5
-43 -9z"/>
<path d="M9523 7583 c9 -2 25 -2 35 0 9 3 1 5 -18 5 -19 0 -27 -2 -17 -5z"/>
<path d="M11073 7583 c15 -2 37 -2 50 0 12 2 0 4 -28 4 -27 0 -38 -2 -22 -4z"/>
<path d="M15408 7544 c-32 -25 -58 -48 -58 -50 0 -4 62 41 129 93 2 2 0 3 -5
3 -5 0 -35 -21 -66 -46z"/>
<path d="M16315 7564 l-30 -26 33 22 c17 12 32 23 32 26 0 7 -4 5 -35 -22z"/>
<path d="M9625 7569 c11 -4 47 -8 80 -8 75 1 61 6 -30 12 -41 3 -62 1 -50 -4z"/>
<path d="M10888 7563 c17 -2 47 -2 65 0 17 2 3 4 -33 4 -36 0 -50 -2 -32 -4z"/>
<path d="M10000 7539 c115 -15 459 -22 515 -11 39 8 8 10 -151 11 -110 0 -254
3 -320 5 -110 4 -113 3 -44 -5z"/>
<path d="M10643 7543 c26 -2 67 -2 90 0 23 2 2 3 -48 3 -49 0 -68 -1 -42 -3z"/>
<path d="M15294 7454 l-39 -36 43 32 c37 28 49 40 39 40 -2 0 -21 -16 -43 -36z"/>
<path d="M4600 7456 c0 -2 8 -10 18 -17 15 -13 16 -12 3 4 -13 16 -21 21 -21
13z"/>
<path d="M5550 7426 c0 -2 8 -10 18 -17 15 -13 16 -12 3 4 -13 16 -21 21 -21
13z"/>
<path d="M15163 7357 c-18 -12 -33 -26 -33 -30 0 -4 16 4 35 19 19 14 35 28
35 30 0 6 -2 5 -37 -19z"/>
<path d="M4731 7357 c2 -1 13 -9 24 -17 19 -14 19 -14 6 3 -7 9 -18 17 -24 17
-6 0 -8 -1 -6 -3z"/>
<path d="M4780 7320 c0 -5 5 -10 11 -10 5 0 7 5 4 10 -3 6 -8 10 -11 10 -2 0
-4 -4 -4 -10z"/>
<path d="M15085 7294 l-30 -26 33 22 c17 12 32 23 32 26 0 7 -4 5 -35 -22z"/>
<path d="M5730 7296 c0 -2 14 -14 30 -26 17 -12 30 -19 30 -16 0 2 -13 14 -30
26 -16 12 -30 19 -30 16z"/>
<path d="M4960 7193 c0 -4 16 -18 35 -31 45 -29 45 -22 0 12 -19 15 -35 23
-35 19z"/>
<path d="M15765 7144 l-30 -26 33 22 c17 12 32 23 32 26 0 7 -4 5 -35 -22z"/>
<path d="M5070 7112 c0 -4 10 -13 23 -21 22 -14 22 -14 3 8 -20 22 -26 25 -26
13z"/>
<path d="M12169 7093 c-13 -16 -12 -17 4 -4 9 7 17 15 17 17 0 8 -8 3 -21 -13z"/>
<path d="M5190 7026 c0 -2 14 -14 30 -26 17 -12 30 -19 30 -16 0 2 -13 14 -30
26 -16 12 -30 19 -30 16z"/>
<path d="M6222 6934 c10 -10 20 -16 22 -13 3 3 -5 11 -17 18 -21 13 -21 12 -5
-5z"/>
<path d="M14560 6899 l-35 -30 38 26 c33 24 43 35 34 35 -1 0 -18 -14 -37 -31z"/>
<path d="M5400 6876 c0 -2 8 -10 18 -17 15 -13 16 -12 3 4 -13 16 -21 21 -21
13z"/>
<path d="M5440 6842 c0 -4 10 -13 23 -21 22 -14 22 -14 3 8 -20 22 -26 25 -26
13z"/>
<path d="M14459 6823 c-13 -16 -12 -17 4 -4 9 7 17 15 17 17 0 8 -8 3 -21 -13z"/>
<path d="M6431 6781 c13 -11 26 -17 28 -15 5 5 -30 33 -43 34 -4 0 2 -9 15
-19z"/>
<path d="M6500 6736 c0 -2 8 -10 18 -17 15 -13 16 -12 3 4 -13 16 -21 21 -21
13z"/>
<path d="M14278 6685 c-27 -20 -48 -38 -48 -41 0 -6 89 57 96 68 8 13 1 9 -48
-27z"/>
<path d="M6547 6699 c7 -7 15 -10 18 -7 3 3 -2 9 -12 12 -14 6 -15 5 -6 -5z"/>
<path d="M6640 6636 c0 -2 14 -14 30 -26 17 -12 30 -19 30 -16 0 2 -13 14 -30
26 -16 12 -30 19 -30 16z"/>
<path d="M14199 6623 c-13 -16 -12 -17 4 -4 9 7 17 15 17 17 0 8 -8 3 -21 -13z"/>
<path d="M5911 6495 c39 -31 59 -42 59 -32 0 6 -88 67 -96 67 -4 0 13 -16 37
-35z"/>
<path d="M14015 6484 l-30 -26 33 22 c17 12 32 23 32 26 0 7 -4 5 -35 -22z"/>
<path d="M8770 6387 c0 -3 12 -12 26 -22 15 -9 23 -12 20 -6 -7 11 -46 35 -46
28z"/>
<path d="M9611 6387 c2 -1 13 -9 24 -17 19 -14 19 -14 6 3 -7 9 -18 17 -24 17
-6 0 -8 -1 -6 -3z"/>
<path d="M6104 6362 c8 -13 66 -56 66 -49 0 3 -17 17 -37 33 -20 15 -33 23
-29 16z"/>
<path d="M11125 6319 c-59 -45 -67 -57 -13 -20 26 17 50 36 53 41 9 14 5 12
-40 -21z"/>
<path d="M14659 6303 c-13 -16 -12 -17 4 -4 9 7 17 15 17 17 0 8 -8 3 -21 -13z"/>
<path d="M7151 6257 c2 -1 13 -9 24 -17 19 -14 19 -14 6 3 -7 9 -18 17 -24 17
-6 0 -8 -1 -6 -3z"/>
<path d="M13669 6223 c-13 -17 -13 -17 6 -3 11 8 22 16 24 17 2 2 0 3 -6 3 -6
0 -17 -8 -24 -17z"/>
<path d="M9016 6205 c10 -8 23 -15 28 -15 6 0 1 7 -10 15 -10 8 -23 15 -28 15
-6 0 -1 -7 10 -15z"/>
<path d="M7257 6179 c7 -7 15 -10 18 -7 3 3 -2 9 -12 12 -14 6 -15 5 -6 -5z"/>
<path d="M6351 6177 c2 -1 13 -9 24 -17 19 -14 19 -14 6 3 -7 9 -18 17 -24 17
-6 0 -8 -1 -6 -3z"/>
<path d="M10916 6165 c-11 -8 -15 -15 -9 -15 6 0 16 7 23 15 16 19 11 19 -14
0z"/>
<path d="M6400 6146 c0 -2 8 -10 18 -17 15 -13 16 -12 3 4 -13 16 -21 21 -21
13z"/>
<path d="M7375 6095 c30 -26 65 -49 65 -42 0 2 -21 18 -47 36 -36 25 -41 26
-18 6z"/>
<path d="M13480 6084 c-64 -51 -73 -63 -17 -24 43 31 76 60 66 60 -2 0 -24
-16 -49 -36z"/>
<path d="M10819 6083 c-13 -16 -12 -17 4 -4 9 7 17 15 17 17 0 8 -8 3 -21 -13z"/>
<path d="M9220 6066 c0 -2 8 -10 18 -17 15 -13 16 -12 3 4 -13 16 -21 21 -21
13z"/>
<path d="M13375 6004 l-30 -26 33 22 c17 12 32 23 32 26 0 7 -4 5 -35 -22z"/>
<path d="M6580 6012 c0 -8 70 -55 75 -50 1 2 -15 15 -36 30 -21 15 -39 24 -39
20z"/>
<path d="M7566 5955 c10 -8 23 -15 28 -15 6 0 1 7 -10 15 -10 8 -23 15 -28 15
-6 0 -1 -7 10 -15z"/>
<path d="M10275 5905 c17 -13 34 -24 38 -25 5 0 -5 11 -21 25 -17 14 -34 25
-38 25 -5 0 5 -11 21 -25z"/>
<path d="M13220 5889 l-45 -41 48 33 c49 34 65 49 50 49 -4 0 -28 -19 -53 -41z"/>
<path d="M14119 5893 c-13 -16 -12 -17 4 -4 9 7 17 15 17 17 0 8 -8 3 -21 -13z"/>
<path d="M6814 5842 c4 -6 28 -26 53 -43 60 -42 49 -24 -13 21 -26 18 -44 28
-40 22z"/>
<path d="M13109 5803 c-13 -16 -12 -17 4 -4 9 7 17 15 17 17 0 8 -8 3 -21 -13z"/>
<path d="M10435 5800 c4 -6 11 -8 16 -5 14 9 11 15 -7 15 -8 0 -12 -5 -9 -10z"/>
<path d="M7852 5744 c10 -10 20 -16 22 -13 3 3 -5 11 -17 18 -21 13 -21 12 -5
-5z"/>
<path d="M9690 5720 c0 -5 5 -10 11 -10 5 0 7 5 4 10 -3 6 -8 10 -11 10 -2 0
-4 -4 -4 -10z"/>
<path d="M12953 5684 l-28 -26 33 22 c29 20 39 30 28 30 -3 0 -18 -12 -33 -26z"/>
<path d="M7040 5676 c0 -2 14 -14 30 -26 17 -12 30 -19 30 -16 0 2 -13 14 -30
26 -16 12 -30 19 -30 16z"/>
<path d="M12899 5643 c-13 -16 -12 -17 4 -4 9 7 17 15 17 17 0 8 -8 3 -21 -13z"/>
<path d="M8069 5587 c14 -18 51 -42 51 -33 0 3 -15 15 -32 27 -24 17 -29 18
-19 6z"/>
<path d="M7290 5492 c0 -7 100 -76 100 -68 0 2 -22 20 -50 40 -27 20 -50 33
-50 28z"/>
<path d="M13539 5453 c-13 -17 -13 -17 6 -3 11 8 22 16 24 17 2 2 0 3 -6 3 -6
0 -17 -8 -24 -17z"/>
<path d="M8280 5436 c0 -2 7 -9 15 -16 9 -7 15 -8 15 -2 0 5 -7 12 -15 16 -8
3 -15 4 -15 2z"/>
<path d="M10086 5408 l-18 -33 21 25 c18 22 26 40 18 40 -1 0 -11 -15 -21 -32z"/>
<path d="M8386 5355 c10 -8 23 -15 28 -15 6 0 1 7 -10 15 -10 8 -23 15 -28 15
-6 0 -1 -7 10 -15z"/>
<path d="M10015 5289 c-4 -6 -5 -12 -2 -15 2 -3 7 2 10 11 7 17 1 20 -8 4z"/>
<path d="M8490 5287 c0 -3 17 -17 37 -33 20 -15 33 -23 29 -16 -8 13 -66 56
-66 49z"/>
<path d="M12375 5249 c-59 -45 -67 -57 -12 -18 42 29 65 50 55 49 -2 0 -21
-14 -43 -31z"/>
<path d="M9991 5234 c0 -11 3 -14 6 -6 3 7 2 16 -1 19 -3 4 -6 -2 -5 -13z"/>
<path d="M9970 5189 c-7 -11 -10 -23 -7 -25 2 -2 9 7 15 21 14 30 7 33 -8 4z"/>
<path d="M7770 5143 c0 -9 40 -36 45 -31 2 2 -8 11 -21 21 -13 10 -24 14 -24
10z"/>
<path d="M9941 5104 c0 -11 3 -14 6 -6 3 7 2 16 -1 19 -3 4 -6 -2 -5 -13z"/>
<path d="M12160 5092 c0 -4 -12 -15 -27 -24 -16 -10 -23 -18 -18 -18 6 0 24
11 40 25 17 13 24 24 18 25 -7 0 -13 -3 -13 -8z"/>
<path d="M8780 5076 c0 -2 8 -10 18 -17 15 -13 16 -12 3 4 -13 16 -21 21 -21
13z"/>
<path d="M9927 5073 c-4 -3 -7 -18 -6 -32 1 -26 1 -25 10 3 9 31 7 41 -4 29z"/>
<path d="M7954 5012 c8 -13 66 -56 66 -49 0 3 -17 17 -37 33 -20 15 -33 23
-29 16z"/>
<path d="M9904 4996 c-3 -8 -4 -23 -2 -33 3 -11 6 -6 9 15 6 34 2 42 -7 18z"/>
<path d="M8940 4956 c0 -2 8 -10 18 -17 15 -13 16 -12 3 4 -13 16 -21 21 -21
13z"/>
<path d="M8992 4914 c10 -10 20 -16 22 -13 3 3 -5 11 -17 18 -21 13 -21 12 -5
-5z"/>
<path d="M11860 4859 l-35 -30 38 26 c33 24 43 35 34 35 -1 0 -18 -14 -37 -31z"/>
<path d="M9874 4856 c-3 -8 -4 -25 -2 -38 3 -17 5 -13 9 15 5 38 2 47 -7 23z"/>
<path d="M8214 4821 c7 -11 46 -35 46 -28 0 3 -12 12 -26 22 -15 9 -23 12 -20
6z"/>
<path d="M9245 4730 c10 -11 20 -20 23 -20 3 0 -3 9 -13 20 -10 11 -20 20 -23
20 -3 0 3 -9 13 -20z"/>
<path d="M10364 4595 c0 -60 1 -84 3 -52 2 32 2 81 0 110 -2 29 -3 3 -3 -58z"/>
<path d="M9332 4664 c10 -10 20 -16 22 -13 3 3 -5 11 -17 18 -21 13 -21 12 -5
-5z"/>
<path d="M11599 4663 c-13 -16 -12 -17 4 -4 16 13 21 21 13 21 -2 0 -10 -8
-17 -17z"/>
<path d="M8458 4635 c17 -14 34 -25 38 -25 11 0 -48 49 -59 50 -5 0 5 -11 21
-25z"/>
<path d="M11549 4623 c-13 -16 -12 -17 4 -4 16 13 21 21 13 21 -2 0 -10 -8
-17 -17z"/>
<path d="M9421 4597 c2 -2 21 -15 42 -30 20 -16 37 -24 37 -20 0 8 -65 53 -77
53 -3 0 -4 -1 -2 -3z"/>
<path d="M11484 4578 l-19 -21 28 18 c28 18 33 25 19 25 -5 0 -17 -10 -28 -22z"/>
<path d="M8680 4476 c14 -15 39 -35 55 -43 35 -18 27 -9 -35 37 -41 31 -43 32
-20 6z"/>
<path d="M11305 4444 c-90 -67 -110 -84 -102 -84 9 0 167 119 167 125 0 8 -3
6 -65 -41z"/>
<path d="M9872 4420 c0 -14 2 -19 5 -12 2 6 2 18 0 25 -3 6 -5 1 -5 -13z"/>
<path d="M8774 4412 c4 -7 35 -31 69 -53 72 -49 57 -30 -23 27 -30 21 -51 33
-46 26z"/>
<path d="M12116 4375 c-11 -8 -15 -15 -9 -15 6 0 16 7 23 15 16 19 11 19 -14
0z"/>
<path d="M11166 4335 c-11 -8 -15 -15 -9 -15 6 0 16 7 23 15 16 19 11 19 -14
0z"/>
<path d="M8910 4312 c0 -4 10 -13 23 -21 22 -14 22 -14 3 8 -20 22 -26 25 -26
13z"/>
<path d="M11058 4255 c-27 -20 -48 -38 -48 -41 0 -7 87 54 95 66 9 15 4 12
-47 -25z"/>
<path d="M9900 4261 c0 -5 5 -13 10 -16 6 -3 10 -2 10 4 0 5 -4 13 -10 16 -5
3 -10 2 -10 -4z"/>
<path d="M10945 4169 c-69 -56 -79 -68 -23 -29 43 30 88 71 77 70 -2 -1 -26
-19 -54 -41z"/>
<path d="M11869 4183 c-13 -16 -12 -17 4 -4 16 13 21 21 13 21 -2 0 -10 -8
-17 -17z"/>
<path d="M11824 4149 c-19 -22 -19 -22 4 -8 12 8 22 17 22 21 0 12 -6 9 -26
-13z"/>
<path d="M9141 4137 c2 -1 13 -9 24 -17 19 -14 19 -14 6 3 -7 9 -18 17 -24 17
-6 0 -8 -1 -6 -3z"/>
<path d="M9190 4100 c0 -5 5 -10 11 -10 5 0 7 5 4 10 -3 6 -8 10 -11 10 -2 0
-4 -4 -4 -10z"/>
<path d="M10839 4083 c-13 -16 -12 -17 4 -4 16 13 21 21 13 21 -2 0 -10 -8
-17 -17z"/>
<path d="M10756 4025 c-11 -8 -17 -17 -14 -20 2 -3 13 4 23 15 21 23 18 25 -9
5z"/>
<path d="M9379 3967 c14 -18 51 -42 51 -33 0 3 -15 15 -32 27 -24 17 -29 18
-19 6z"/>
<path d="M11576 3965 c-11 -8 -15 -15 -9 -15 6 0 16 7 23 15 16 19 11 19 -14
0z"/>
<path d="M9593 3813 c18 -20 107 -87 107 -80 0 2 -28 25 -62 52 -35 26 -55 39
-45 28z"/>
<path d="M11279 3733 c-13 -16 -12 -17 4 -4 16 13 21 21 13 21 -2 0 -10 -8
-17 -17z"/>
<path d="M9714 3721 c7 -11 46 -35 46 -28 0 3 -12 12 -26 22 -15 9 -23 12 -20
6z"/>
<path d="M9866 3605 c10 -8 23 -15 28 -15 6 0 1 7 -10 15 -10 8 -23 15 -28 15
-6 0 -1 -7 10 -15z"/>
<path d="M10079 3457 c14 -18 51 -42 51 -33 0 3 -15 15 -32 27 -24 17 -29 18
-19 6z"/>
<path d="M10210 3361 c53 -49 130 -105 136 -99 2 3 -17 19 -44 36 -26 18 -67
48 -92 68 l-45 37 45 -42z"/>
<path d="M10729 3313 c-13 -16 -12 -17 4 -4 16 13 21 21 13 21 -2 0 -10 -8
-17 -17z"/>
<path d="M10368 3248 c6 -6 18 -8 28 -6 14 3 12 5 -9 10 -19 3 -25 2 -19 -4z"/>
<path d="M10588 3243 c6 -2 18 -2 25 0 6 3 1 5 -13 5 -14 0 -19 -2 -12 -5z"/>
</g>
</svg>
